<?xml version="1.0" encoding="UTF-8"?>
<svg width="2560" height="1440" version="1.1" viewBox="0 0 2560 1440" xml:space="preserve" xmlns="http://www.w3.org/2000/svg" xmlns:cc="http://creativecommons.org/ns#" xmlns:dc="http://purl.org/dc/elements/1.1/" xmlns:rdf="http://www.w3.org/1999/02/22-rdf-syntax-ns#"><metadata><rdf:RDF><cc:Work rdf:about=""><dc:format>image/svg+xml</dc:format><dc:type rdf:resource="http://purl.org/dc/dcmitype/StillImage"/><dc:title/></cc:Work></rdf:RDF></metadata><defs><clipPath id="clipPath28"><path d="m0 0h1920v1080h-1920z"/></clipPath></defs><g transform="matrix(1.3333 0 0 -1.3333 0 1440)"><path d="m0 0h1920v1080h-1920z" fill="#fff"/><g clip-path="url(#clipPath28)"><g transform="translate(16.72 1153.8)"><path d="m0 0v-1263.8" fill="none" stroke="#dadbdf" stroke-miterlimit="10"/></g><g transform="translate(85.355 1153.8)"><path d="m0 0v-1263.8" fill="none" stroke="#dadbdf" stroke-miterlimit="10"/></g><g transform="translate(153.99 1153.8)"><path d="m0 0v-1263.8" fill="none" stroke="#dadbdf" stroke-miterlimit="10"/></g><g transform="translate(222.62 1153.8)"><path d="m0 0v-1263.8" fill="none" stroke="#dadbdf" stroke-miterlimit="10"/></g><g transform="translate(291.26 1153.8)"><path d="m0 0v-1263.8" fill="none" stroke="#dadbdf" stroke-miterlimit="10"/></g><g transform="translate(359.89 1153.8)"><path d="m0 0v-1263.8" fill="none" stroke="#dadbdf" stroke-miterlimit="10"/></g><g transform="translate(428.53 1153.8)"><path d="m0 0v-1263.8" fill="none" stroke="#dadbdf" stroke-miterlimit="10"/></g><g transform="translate(497.16 1153.8)"><path d="m0 0v-1263.8" fill="none" stroke="#dadbdf" stroke-miterlimit="10"/></g><g transform="translate(565.8 1153.8)"><path d="m0 0v-1263.8" fill="none" stroke="#dadbdf" stroke-miterlimit="10"/></g><g transform="translate(634.43 1153.8)"><path d="m0 0v-1263.8" fill="none" stroke="#dadbdf" stroke-miterlimit="10"/></g><g transform="translate(703.07 1153.8)"><path d="m0 0v-1263.8" fill="none" stroke="#dadbdf" stroke-miterlimit="10"/></g><g transform="translate(771.7 1153.8)"><path d="m0 0v-1263.8" fill="none" stroke="#dadbdf" stroke-miterlimit="10"/></g><g transform="translate(840.34 1153.8)"><path d="m0 0v-1263.8" fill="none" stroke="#dadbdf" stroke-miterlimit="10"/></g><g transform="translate(908.97 1153.8)"><path d="m0 0v-1263.8" fill="none" stroke="#dadbdf" stroke-miterlimit="10"/></g><g transform="translate(977.61 1153.8)"><path d="m0 0v-1263.8" fill="none" stroke="#dadbdf" stroke-miterlimit="10"/></g><g transform="translate(1046.2 1153.8)"><path d="m0 0v-1263.8" fill="none" stroke="#dadbdf" stroke-miterlimit="10"/></g><g transform="translate(1114.9 1153.8)"><path d="m0 0v-1263.8" fill="none" stroke="#dadbdf" stroke-miterlimit="10"/></g><g transform="translate(1183.5 1153.8)"><path d="m0 0v-1263.8" fill="none" stroke="#dadbdf" stroke-miterlimit="10"/></g><g transform="translate(1252.1 1153.8)"><path d="m0 0v-1263.8" fill="none" stroke="#dadbdf" stroke-miterlimit="10"/></g><g transform="translate(1320.8 1153.8)"><path d="m0 0v-1263.8" fill="none" stroke="#dadbdf" stroke-miterlimit="10"/></g><g transform="translate(1389.4 1153.8)"><path d="m0 0v-1263.8" fill="none" stroke="#dadbdf" stroke-miterlimit="10"/></g><g transform="translate(1458.1 1153.8)"><path d="m0 0v-1263.8" fill="none" stroke="#dadbdf" stroke-miterlimit="10"/></g><g transform="translate(1526.7 1153.8)"><path d="m0 0v-1263.8" fill="none" stroke="#dadbdf" stroke-miterlimit="10"/></g><g transform="translate(1595.3 1153.8)"><path d="m0 0v-1263.8" fill="none" stroke="#dadbdf" stroke-miterlimit="10"/></g><g transform="translate(1664 1153.8)"><path d="m0 0v-1263.8" fill="none" stroke="#dadbdf" stroke-miterlimit="10"/></g><g transform="translate(1732.6 1153.8)"><path d="m0 0v-1263.8" fill="none" stroke="#dadbdf" stroke-miterlimit="10"/></g><g transform="translate(1801.2 1153.8)"><path d="m0 0v-1263.8" fill="none" stroke="#dadbdf" stroke-miterlimit="10"/></g><g transform="translate(1869.9 1153.8)"><path d="m0 0v-1263.8" fill="none" stroke="#dadbdf" stroke-miterlimit="10"/></g><g transform="translate(1965.3 1042.8)"><path d="m0 0h-1994.9" fill="none" stroke="#dadbdf" stroke-miterlimit="10"/></g><g transform="translate(1965.3 974.12)"><path d="m0 0h-1994.9" fill="none" stroke="#dadbdf" stroke-miterlimit="10"/></g><g transform="translate(1965.3 905.49)"><path d="m0 0h-1994.9" fill="none" stroke="#dadbdf" stroke-miterlimit="10"/></g><g transform="translate(1965.3 835.75)"><path d="m0 0h-1994.9" fill="none" stroke="#dadbdf" stroke-miterlimit="10"/></g><g transform="translate(1965.3 767.12)"><path d="m0 0h-1994.9" fill="none" stroke="#dadbdf" stroke-miterlimit="10"/></g><g transform="translate(1965.3 698.48)"><path d="m0 0h-1994.9" fill="none" stroke="#dadbdf" stroke-miterlimit="10"/></g><g transform="translate(1965.3 629.85)"><path d="m0 0h-1994.9" fill="none" stroke="#dadbdf" stroke-miterlimit="10"/></g><g transform="translate(1965.3 561.21)"><path d="m0 0h-1994.9" fill="none" stroke="#dadbdf" stroke-miterlimit="10"/></g><g transform="translate(1965.3 492.58)"><path d="m0 0h-1994.9" fill="none" stroke="#dadbdf" stroke-miterlimit="10"/></g><g transform="translate(1965.3 423.94)"><path d="m0 0h-1994.9" fill="none" stroke="#dadbdf" stroke-miterlimit="10"/></g><g transform="translate(1965.3 355.31)"><path d="m0 0h-1994.9" fill="none" stroke="#dadbdf" stroke-miterlimit="10"/></g><g transform="translate(1965.3 286.67)"><path d="m0 0h-1994.9" fill="none" stroke="#dadbdf" stroke-miterlimit="10"/></g><g transform="translate(1965.3 218.04)"><path d="m0 0h-1994.9" fill="none" stroke="#dadbdf" stroke-miterlimit="10"/></g><g transform="translate(1965.3 149.4)"><path d="m0 0h-1994.9" fill="none" stroke="#dadbdf" stroke-miterlimit="10"/></g><g transform="translate(1965.3 80.768)"><path d="m0 0h-1994.9" fill="none" stroke="#dadbdf" stroke-miterlimit="10"/></g><g transform="translate(1965.3 12.133)"><path d="m0 0h-1994.9" fill="none" stroke="#dadbdf" stroke-miterlimit="10"/></g><g transform="translate(1458.1 514.97)"><path d="M 0,0 V 45.735 H -45.735 C -45.735,20.477 -25.259,0 0,0" fill="#3aa757"/></g><g transform="translate(1046.2 126.51)"><path d="M 0,0 V -45.735 H 45.735 C 45.735,-20.477 25.259,0 0,0" fill="#cfe9d7"/></g><path d="m1389.4 458.21h-274.54v34.352h274.54z" fill="#258d42"/><path d="m1389.4 149.41h-274.54v308.8h274.54z" fill="#a9d9b6"/><g transform="translate(1252.7 -56.495)"><path d="m0 0v342.69h205.9v68.613h205.87v68.639h321.66v114.9h112.54v-594.84z" fill="#cfe9d7"/></g><g transform="translate(1250.9 46.484)"><path d="m0 0h6" fill="none" stroke="#fff" stroke-miterlimit="10" stroke-width="6"/></g><g transform="translate(1268.9 46.484)"><path d="m0 0h639.17" fill="none" stroke="#fff" stroke-dasharray="11.947, 11.947" stroke-miterlimit="10" stroke-width="6"/></g><g transform="translate(1914 46.484)"><path d="m0 0h6" fill="none" stroke="#fff" stroke-miterlimit="10" stroke-width="6"/></g><g transform="translate(1709.7 253.46)"><path d="m0 0c-18.655 0-33.777-15.123-33.777-33.777 0-18.656 15.122-33.778 33.777-33.778s33.777 15.122 33.777 33.778c0 18.654-15.122 33.777-33.777 33.777m0-6c15.316 0 27.777-12.461 27.777-27.777 0-15.317-12.461-27.778-27.777-27.778s-27.777 12.461-27.777 27.778c0 15.316 12.461 27.777 27.777 27.777" fill="#fff"/></g><g transform="translate(1709.7 170.41)"><path d="m0 0c-37.906 0-68.635-30.729-68.635-68.635h137.27c0 37.906-30.729 68.635-68.635 68.635m0-6c32.514 0 59.32-24.901 62.351-56.635h-124.7c3.03 31.734 29.837 56.635 62.35 56.635" fill="#fff"/></g><g transform="translate(1492.9 219.69)"><path d="m0 0c0-18.655 15.123-33.777 33.777-33.777 18.655 0 33.778 15.122 33.778 33.777 0 18.654-15.123 33.777-33.778 33.777-18.654 0-33.777-15.123-33.777-33.777" fill="#3aa757"/></g><g transform="translate(1458 101.77)"><path d="m0 0c0 37.906 30.729 68.635 68.635 68.635s68.635-30.729 68.635-68.635z" fill="#3aa757"/></g><g transform="translate(1892.7 253.46)"><path d="m0 0c-18.654 0-33.777-15.123-33.777-33.777 0-18.656 15.123-33.778 33.777-33.778s33.777 15.122 33.777 33.778c0 18.654-15.123 33.777-33.777 33.777m0-6c15.316 0 27.777-12.461 27.777-27.777 0-15.317-12.461-27.778-27.777-27.778s-27.777 12.461-27.777 27.778c0 15.316 12.461 27.777 27.777 27.777" fill="#fff"/></g><g transform="translate(1892.7 170.41)"><path d="m0 0c-37.906 0-68.635-30.729-68.635-68.635h137.27c0 37.906-30.729 68.635-68.635 68.635m0-6c32.514 0 59.32-24.901 62.35-56.635h-124.7c3.03 31.734 29.836 56.635 62.35 56.635" fill="#fff"/></g><g transform="translate(1821.2 446.83)"><path d="m0 0c0 75.813-61.458 137.27-137.27 137.27-75.811 0-137.27-61.457-137.27-137.27 0-75.812 61.458-137.27 137.27-137.27 75.813 0 137.27 61.458 137.27 137.27z" fill="none" stroke="#3aa757" stroke-miterlimit="10" stroke-width="6"/></g><g transform="translate(1627.9 492.76)"><path d="m0 0h112.07" fill="none" stroke="#3aa757" stroke-miterlimit="10" stroke-width="6"/></g><g transform="translate(1627.9 446.83)"><path d="m0 0h112.07" fill="none" stroke="#3aa757" stroke-miterlimit="10" stroke-width="6"/></g><g transform="translate(1627.9 400.9)"><path d="m0 0h112.07" fill="none" stroke="#3aa757" stroke-miterlimit="10" stroke-width="6"/></g><g transform="translate(1252.1 152.4)"><path d="m0 0h134.3v133.79" fill="none" stroke="#fff" stroke-miterlimit="10" stroke-width="6"/></g><path d="m1349.7 330.02h-194.15v93.926h194.15z" fill="#3aa757"/><path d="m1252.7 218.04h-97.074v48.658h97.074z" fill="#3aa757"/><g transform="translate(1252.7 263.7)"><path d="m0 0h94.074v-42.658h-94.074" fill="none" stroke="#fff" stroke-miterlimit="10" stroke-width="6"/></g><g transform="translate(1189.6 356.29)"><path d="M 0,0 20.693,20.694 0,41.388" fill="none" stroke="#cfe9d7" stroke-miterlimit="10" stroke-width="6"/></g><g transform="translate(1231.9 356.29)"><path d="m0 0h83.893" fill="none" stroke="#cfe9d7" stroke-miterlimit="10" stroke-width="6"/></g><path d="m1594.8 973.59h-1440.3v-274.6h1440.3z" fill="#fff"/><path d="m977.06 492.07h-822.59v-410.8h822.59z" fill="#fff"/><g transform="translate(338.69 836.23)"><path d="m0 0 28.689 16.564c6.752 3.898 9.066 12.532 5.167 19.283-3.898 6.752-12.531 9.066-19.283 5.167l-49.574-28.622z" fill="#ea4335"/></g><g transform="translate(360.31 793.66)"><path d="m0 0c4.879 0 9.623 2.532 12.238 7.061 3.899 6.752 1.585 15.385-5.167 19.283l-49.574 28.621c-6.753 3.901-15.386 1.585-19.283-5.167-3.899-6.752-1.585-15.385 5.167-19.283l49.574-28.621c2.223-1.284 4.65-1.894 7.045-1.894" fill="#4285f4"/></g><g transform="translate(409.62 793.66)"><path d="m0 0c2.395 0 4.821 0.61 7.045 1.894l49.573 28.621-34.556 12.65-29.133-16.821c-6.752-3.898-9.066-12.531-5.167-19.283 2.614-4.529 7.359-7.061 12.238-7.061" fill="#fbbc04"/></g><g transform="translate(459.17 822.28)"><path d="m0 0c4.88 0 9.624 2.532 12.238 7.061 3.899 6.752 1.585 15.385-5.167 19.283l-49.573 28.622c-6.752 3.898-15.385 1.586-19.283-5.167-3.899-6.751-1.585-15.384 5.167-19.283l49.573-28.622c2.224-1.283 4.65-1.894 7.045-1.894" fill="#089d57"/></g><g transform="translate(535.11 812.22)"><path d="m0 0c7.37 0 13.218 2.118 17.542 6.355 4.322 4.235 6.485 10.155 6.485 17.759 0 7.602-2.163 13.522-6.485 17.759-4.324 4.235-10.172 6.355-17.542 6.355h-11.491v-48.228zm-18.804 55.279h18.804c6.384 0 11.955-1.321 16.715-3.961 4.758-2.642 8.414-6.311 10.969-11.012 2.552-4.701 3.83-10.098 3.83-16.192s-1.278-11.491-3.83-16.192c-2.555-4.701-6.211-8.372-10.969-11.012-4.76-2.642-10.331-3.961-16.715-3.961h-18.804z" fill="#686d74"/></g><g transform="translate(605.53 832.06)"><path d="m0 0c-0.117 1.857-0.64 3.713-1.567 5.572-0.929 1.856-2.394 3.423-4.396 4.7-2.003 1.276-4.514 1.916-7.53 1.916-3.483 0-6.429-1.119-8.836-3.352-2.409-2.235-3.991-5.18-4.745-8.836zm-24.201-25.246c-3.366 2.032-5.993 4.832-7.878 8.401-1.887 3.57-2.829 7.587-2.829 12.057 0 4.294 0.884 8.241 2.654 11.84 1.771 3.597 4.279 6.47 7.53 8.618 3.25 2.146 7.022 3.221 11.318 3.221 4.352 0 8.124-0.973 11.316-2.917 3.192-1.945 5.644-4.628 7.357-8.052 1.711-3.425 2.568-7.342 2.568-11.752 0-0.871-0.087-1.626-0.262-2.264h-35.082c0.174-3.366 0.987-6.211 2.438-8.531 1.449-2.322 3.293-4.063 5.527-5.223 2.233-1.162 4.57-1.741 7.008-1.741 5.687 0 10.068 2.669 13.145 8.009l6.268-3.047c-1.915-3.6-4.513-6.442-7.791-8.532-3.279-2.089-7.24-3.133-11.883-3.133-4.237 0-8.039 1.016-11.404 3.046" fill="#686d74"/></g><g transform="translate(614.5 849.56)"><path d="m0 0h7.922l13.755-35.692h0.174l13.928 35.692h7.748l-18.107-44.397h-7.487z" fill="#686d74"/></g><g transform="translate(693.63 832.06)"><path d="m0 0c-0.116 1.857-0.639 3.713-1.566 5.572-0.93 1.856-2.395 3.423-4.397 4.7-2.002 1.276-4.513 1.916-7.53 1.916-3.482 0-6.428-1.119-8.836-3.352-2.409-2.235-3.99-5.18-4.744-8.836zm-24.2-25.246c-3.367 2.032-5.993 4.832-7.879 8.401-1.887 3.57-2.829 7.587-2.829 12.057 0 4.294 0.885 8.241 2.655 11.84 1.77 3.597 4.279 6.47 7.53 8.618 3.249 2.146 7.022 3.221 11.317 3.221 4.353 0 8.125-0.973 11.317-2.917 3.192-1.945 5.644-4.628 7.356-8.052 1.712-3.425 2.568-7.342 2.568-11.752 0-0.871-0.087-1.626-0.261-2.264h-35.083c0.174-3.366 0.987-6.211 2.438-8.531 1.45-2.322 3.293-4.063 5.528-5.223 2.233-1.162 4.57-1.741 7.008-1.741 5.686 0 10.068 2.669 13.144 8.009l6.269-3.047c-1.915-3.6-4.514-6.442-7.792-8.532-3.279-2.089-7.24-3.133-11.883-3.133-4.236 0-8.039 1.016-11.403 3.046" fill="#686d74"/></g><path d="m708.34 867.5h7.399v-62.331h-7.399z" fill="#686d74"/><g transform="translate(752.61,812.52)"><path d="m0 0c2.351 1.363 4.236 3.322 5.659 5.876 1.421 2.553 2.133 5.542 2.133 8.967 0 3.423-0.712 6.412-2.133 8.966-1.423 2.553-3.308 4.512-5.659 5.876-2.35 1.363-4.89 2.046-7.617 2.046-2.729 0-5.281-0.683-7.66-2.046-2.381-1.364-4.281-3.323-5.702-5.876-1.423-2.554-2.133-5.543-2.133-8.966 0-3.425 0.71-6.414 2.133-8.967 1.421-2.554 3.321-4.513 5.702-5.876 2.379-1.364 4.931-2.046 7.66-2.046 2.727 0 5.267 0.682 7.617 2.046m-19.369-5.615c-3.483 2.089-6.195 4.932-8.14 8.531-1.944 3.598-2.916 7.574-2.916 11.927 0 4.352 0.972 8.327 2.916 11.926 1.945 3.598 4.657 6.442 8.14 8.531 3.482 2.09 7.399 3.134 11.752 3.134s8.27-1.044 11.753-3.134c3.482-2.089 6.194-4.933 8.139-8.531 1.944-3.599 2.916-7.574 2.916-11.926 0-4.353-0.972-8.329-2.916-11.927-1.945-3.599-4.657-6.442-8.139-8.531-3.483-2.089-7.4-3.134-11.753-3.134s-8.27 1.045-11.752 3.134" fill="#686d74"/></g><g transform="translate(802.8 812.56)"><path d="m0 0c2.263 1.393 4.076 3.38 5.44 5.963 1.364 2.582 2.046 5.528 2.046 8.836s-0.682 6.253-2.046 8.836c-1.364 2.582-3.177 4.571-5.44 5.963-2.264 1.393-4.673 2.089-7.226 2.089-2.554 0-4.962-0.696-7.225-2.089-2.264-1.392-4.063-3.366-5.398-5.919-1.336-2.554-2.002-5.514-2.002-8.88s0.666-6.326 2.002-8.879c1.335-2.555 3.134-4.527 5.398-5.92 2.263-1.393 4.671-2.089 7.225-2.089 2.553 0 4.962 0.696 7.226 2.089m-28.902 36.998h7.051v-6.616h0.348c1.335 2.263 3.353 4.163 6.051 5.702 2.698 1.537 5.73 2.307 9.097 2.307 3.946 0 7.543-1.016 10.794-3.047 3.25-2.032 5.803-4.846 7.661-8.444 1.857-3.599 2.786-7.632 2.786-12.101 0-4.527-0.929-8.574-2.786-12.144-1.858-3.569-4.411-6.369-7.661-8.401-3.251-2.03-6.848-3.046-10.794-3.046-3.367 0-6.399 0.77-9.097 2.307s-4.716 3.408-6.051 5.614h-0.348l0.348-6.093v-19.239h-7.399z" fill="#686d74"/></g><g transform="translate(857.12 832.06)"><path d="m0 0c-0.117 1.857-0.639 3.713-1.566 5.572-0.93 1.856-2.395 3.423-4.397 4.7-2.002 1.276-4.514 1.916-7.53 1.916-3.483 0-6.429-1.119-8.836-3.352-2.409-2.235-3.991-5.18-4.744-8.836zm-24.201-25.246c-3.366 2.032-5.992 4.832-7.878 8.401-1.887 3.57-2.829 7.587-2.829 12.057 0 4.294 0.884 8.241 2.655 11.84 1.77 3.597 4.279 6.47 7.529 8.618 3.25 2.146 7.022 3.221 11.318 3.221 4.352 0 8.125-0.973 11.317-2.917 3.191-1.945 5.644-4.628 7.356-8.052 1.711-3.425 2.568-7.342 2.568-11.752 0-0.871-0.087-1.626-0.261-2.264h-35.083c0.174-3.366 0.987-6.211 2.438-8.531 1.45-2.322 3.293-4.063 5.528-5.223 2.233-1.162 4.57-1.741 7.008-1.741 5.686 0 10.068 2.669 13.144 8.009l6.268-3.047c-1.915-3.6-4.513-6.442-7.791-8.532-3.279-2.089-7.24-3.133-11.883-3.133-4.237 0-8.039 1.016-11.404 3.046" fill="#686d74"/></g><g transform="translate(871.83 849.56)"><path d="m0 0h7.052v-7.139h0.347c0.872 2.438 2.554 4.469 5.05 6.094 2.494 1.625 5.107 2.438 7.835 2.438 2.03 0 3.772-0.32 5.223-0.958v-7.922c-1.858 0.928-3.947 1.393-6.268 1.393-2.148 0-4.121-0.611-5.92-1.832s-3.235-2.865-4.309-4.929c-1.074-2.065-1.611-4.291-1.611-6.675v-24.867h-7.399z" fill="#686d74"/></g><g transform="translate(924.06 808.21)"><path d="m0 0c-4.063 2.959-6.85 7.108-8.357 12.449l7.05 2.872c0.987-3.715 2.815-6.761 5.485-9.14 2.669-2.381 5.802-3.57 9.402-3.57 3.598 0 6.645 0.972 9.141 2.917 2.494 1.944 3.743 4.599 3.743 7.965 0 2.902-1.06 5.296-3.178 7.182-2.119 1.886-5.586 3.641-10.402 5.267l-3.918 1.393c-4.411 1.567-8.009 3.626-10.794 6.181-2.786 2.553-4.179 6.093-4.179 10.62 0 2.96 0.812 5.702 2.438 8.227 1.624 2.524 3.887 4.54 6.79 6.05 2.901 1.508 6.15 2.263 9.75 2.263 3.597 0 6.731-0.667 9.401-2.002 2.669-1.336 4.802-2.96 6.399-4.875 1.595-1.915 2.712-3.801 3.351-5.658l-6.964-2.96c-0.581 2.146-1.901 4.091-3.961 5.832s-4.774 2.612-8.139 2.612c-3.193 0-5.92-0.9-8.183-2.699-2.264-1.8-3.396-4.063-3.396-6.79 0-2.437 0.959-4.426 2.874-5.963 1.915-1.538 4.816-2.975 8.705-4.309l4.091-1.393c5.281-1.915 9.402-4.309 12.362-7.182s4.439-6.776 4.439-11.708c0-4.005-1.03-7.372-3.09-10.099-2.06-2.729-4.657-4.731-7.792-6.007-3.133-1.276-6.354-1.915-9.662-1.915-4.875 0-9.344 1.48-13.406 4.44" fill="#686d74"/></g><g transform="translate(975.55 804.66)"><path d="m0 0c-1.538 0.59-2.829 1.389-3.874 2.394-1.161 1.122-2.032 2.422-2.611 3.9-0.581 1.477-0.87 3.279-0.87 5.406v26.502h-7.749v6.703h7.749v12.535h7.399v-12.535h10.795v-6.703h-10.795v-24.736c0-2.492 0.464-4.331 1.393-5.517 1.101-1.306 2.699-1.957 4.788-1.957 1.682 0 3.307 0.492 4.875 1.48v-7.226c-0.871-0.405-1.756-0.696-2.656-0.871-0.9-0.174-2.046-0.261-3.438-0.261-1.8 0-3.469 0.297-5.006 0.886" fill="#686d74"/></g><g transform="translate(997.49 808.47)"><path d="m0 0c-2.815 3.134-4.222 7.515-4.222 13.145v27.944h7.4v-26.812c0-4.237 0.957-7.343 2.873-9.315 1.915-1.974 4.496-2.96 7.747-2.96 2.495 0 4.715 0.666 6.66 2.002 1.943 1.335 3.452 3.076 4.526 5.224 1.074 2.146 1.611 4.41 1.611 6.79v25.071h7.399v-44.397h-7.051v6.442h-0.348c-1.219-2.207-3.163-4.063-5.832-5.572-2.671-1.508-5.515-2.263-8.532-2.263-5.34 0-9.417 1.567-12.231 4.701" fill="#686d74"/></g><g transform="translate(1067.2 812.56)"><path d="m0 0c2.233 1.393 4.033 3.365 5.396 5.92 1.364 2.553 2.046 5.513 2.046 8.879s-0.682 6.326-2.046 8.88c-1.363 2.553-3.163 4.527-5.396 5.919-2.235 1.393-4.657 2.089-7.27 2.089-2.554 0-4.961-0.696-7.224-2.089-2.264-1.392-4.078-3.381-5.442-5.963-1.364-2.583-2.045-5.528-2.045-8.836s0.681-6.254 2.045-8.836c1.364-2.583 3.178-4.57 5.442-5.963 2.263-1.393 4.67-2.089 7.224-2.089 2.613 0 5.035 0.696 7.27 2.089m-18.891-5.746c-3.221 2.032-5.76 4.832-7.617 8.401-1.858 3.57-2.786 7.617-2.786 12.144 0 4.469 0.928 8.502 2.786 12.101 1.857 3.598 4.396 6.412 7.617 8.444 3.221 2.031 6.804 3.047 10.751 3.047 3.424 0 6.471-0.77 9.141-2.307 2.669-1.539 4.701-3.439 6.094-5.702h0.347l-0.347 6.181v18.368h7.399v-62.33h-7.052v6.528h-0.347c-1.393-2.206-3.425-4.077-6.094-5.614-2.67-1.537-5.717-2.307-9.141-2.307-3.947 0-7.53 1.016-10.751 3.046" fill="#686d74"/></g><g transform="translate(1123.1 832.06)"><path d="m0 0c-0.117 1.857-0.64 3.713-1.567 5.572-0.929 1.856-2.394 3.423-4.396 4.7-2.003 1.276-4.514 1.916-7.53 1.916-3.483 0-6.429-1.119-8.836-3.352-2.409-2.235-3.991-5.18-4.745-8.836zm-24.201-25.246c-3.366 2.032-5.993 4.832-7.878 8.401-1.887 3.57-2.829 7.587-2.829 12.057 0 4.294 0.884 8.241 2.654 11.84 1.77 3.597 4.279 6.47 7.53 8.618 3.25 2.146 7.022 3.221 11.318 3.221 4.352 0 8.124-0.973 11.316-2.917 3.192-1.945 5.644-4.628 7.357-8.052 1.711-3.425 2.568-7.342 2.568-11.752 0-0.871-0.088-1.626-0.262-2.264h-35.082c0.174-3.366 0.987-6.211 2.438-8.531 1.449-2.322 3.293-4.063 5.527-5.223 2.233-1.162 4.57-1.741 7.008-1.741 5.687 0 10.068 2.669 13.145 8.009l6.268-3.047c-1.915-3.6-4.513-6.442-7.791-8.532-3.279-2.089-7.24-3.133-11.883-3.133-4.237 0-8.039 1.016-11.404 3.046" fill="#686d74"/></g><g transform="translate(1137.8 849.56)"><path d="m0 0h7.051v-6.529h0.348c1.219 2.205 3.164 4.076 5.833 5.615 2.668 1.537 5.513 2.307 8.532 2.307 5.339 0 9.415-1.554 12.23-4.658 2.815-3.105 4.223-7.327 4.223-12.666v-28.466h-7.4v27.335c0 4.12-0.988 7.108-2.96 8.966-1.973 1.856-4.672 2.785-8.096 2.785-2.38 0-4.513-0.668-6.399-2.001-1.886-1.336-3.351-3.091-4.395-5.268-1.045-2.176-1.568-4.454-1.568-6.833v-24.984h-7.399z" fill="#686d74"/></g><g transform="translate(1194.8 804.66)"><path d="m0 0c-1.538 0.59-2.829 1.389-3.873 2.394-1.162 1.122-2.032 2.422-2.612 3.9-0.58 1.477-0.87 3.279-0.87 5.406v26.502h-7.749v6.703h7.749v12.535h7.399v-12.535h10.795v-6.703h-10.795v-24.736c0-2.492 0.464-4.331 1.393-5.517 1.102-1.306 2.699-1.957 4.788-1.957 1.682 0 3.308 0.492 4.875 1.48v-7.226c-0.871-0.405-1.756-0.696-2.656-0.871-0.9-0.174-2.045-0.261-3.438-0.261-1.8 0-3.469 0.297-5.006 0.886" fill="#686d74"/></g><g transform="translate(1243.8 808.04)"><path d="m0 0c-4.934 2.843-8.808 6.747-11.622 11.709-2.816 4.962-4.222 10.49-4.222 16.583 0 6.094 1.406 11.622 4.222 16.584 2.814 4.962 6.688 8.865 11.622 11.709 4.932 2.843 10.417 4.266 16.453 4.266 4.643 0 8.893-0.886 12.753-2.655 3.859-1.771 7.211-4.281 10.055-7.53l-5.31-5.137c-2.381 2.843-4.977 4.932-7.792 6.268-2.815 1.334-6.05 2.002-9.706 2.002-4.526 0-8.677-1.059-12.448-3.177-3.774-2.12-6.777-5.108-9.011-8.967-2.234-3.86-3.351-8.313-3.351-13.363 0-5.048 1.117-9.503 3.351-13.362 2.234-3.86 5.237-6.848 9.011-8.967 3.771-2.119 7.922-3.177 12.448-3.177 7.544 0 13.957 3.104 19.238 9.315l5.398-5.224c-2.902-3.425-6.472-6.137-10.707-8.139-4.237-2.002-8.88-3.004-13.929-3.004-6.036 0-11.521 1.422-16.453 4.266" fill="#686d74"/></g><path d="m1291.4 867.5h7.399v-62.331h-7.399z" fill="#686d74"/><g transform="translate(1311.9 808.47)"><path d="m0 0c-2.815 3.134-4.222 7.515-4.222 13.145v27.944h7.4v-26.812c0-4.237 0.957-7.343 2.873-9.315 1.915-1.974 4.496-2.96 7.748-2.96 2.494 0 4.714 0.666 6.659 2.002 1.943 1.335 3.452 3.076 4.526 5.224 1.074 2.146 1.612 4.41 1.612 6.79v25.071h7.399v-44.397h-7.052v6.442h-0.347c-1.219-2.207-3.164-4.063-5.833-5.572-2.67-1.508-5.515-2.263-8.532-2.263-5.34 0-9.417 1.567-12.231 4.701" fill="#686d74"/></g><g transform="translate(1384 812.56)"><path d="m0 0c2.264 1.393 4.077 3.38 5.441 5.963 1.364 2.582 2.046 5.528 2.046 8.836s-0.682 6.253-2.046 8.836c-1.364 2.582-3.177 4.571-5.441 5.963-2.263 1.393-4.672 2.089-7.225 2.089-2.554 0-4.963-0.696-7.225-2.089-2.264-1.392-4.064-3.366-5.398-5.919-1.336-2.554-2.002-5.514-2.002-8.88s0.666-6.326 2.002-8.879c1.334-2.555 3.134-4.527 5.398-5.92 2.262-1.393 4.671-2.089 7.225-2.089 2.553 0 4.962 0.696 7.225 2.089m-15.451-6.485c-2.699 1.537-4.716 3.408-6.051 5.614h-0.348v-6.528h-7.051v62.33h7.399v-18.368l-0.348-6.181h0.348c1.335 2.263 3.352 4.163 6.051 5.702 2.698 1.537 5.73 2.307 9.097 2.307 3.946 0 7.543-1.016 10.794-3.047 3.249-2.032 5.803-4.846 7.661-8.444 1.857-3.599 2.786-7.632 2.786-12.101 0-4.527-0.929-8.574-2.786-12.144-1.858-3.569-4.412-6.369-7.661-8.401-3.251-2.03-6.848-3.046-10.794-3.046-3.367 0-6.399 0.77-9.097 2.307" fill="#686d74"/></g><g transform="translate(1408.9 807.12)"><path d="m0 0c-3.192 2.234-5.455 5.093-6.79 8.575l6.616 2.96c1.102-2.67 2.742-4.731 4.919-6.181 2.176-1.451 4.569-2.176 7.182-2.176 2.786 0 5.165 0.566 7.138 1.697 1.972 1.132 2.96 2.743 2.96 4.832 0 1.856-0.784 3.351-2.35 4.483-1.568 1.132-4.034 2.102-7.4 2.916l-5.398 1.393c-3.54 0.871-6.441 2.351-8.705 4.44-2.263 2.089-3.395 4.788-3.395 8.096 0 2.553 0.769 4.801 2.307 6.746 1.537 1.944 3.583 3.439 6.137 4.484 2.553 1.045 5.31 1.567 8.27 1.567 3.888 0 7.357-0.842 10.404-2.525 3.046-1.684 5.208-4.034 6.485-7.051l-6.443-2.96c-1.973 3.946-5.484 5.92-10.533 5.92-2.437 0-4.57-0.566-6.398-1.698s-2.742-2.568-2.742-4.309c0-1.626 0.637-2.946 1.915-3.961 1.276-1.016 3.191-1.843 5.745-2.481l6.442-1.654c4.353-1.103 7.631-2.742 9.837-4.919 2.205-2.176 3.309-4.831 3.309-7.965 0-2.729-0.783-5.123-2.351-7.182-1.567-2.061-3.686-3.643-6.354-4.744-2.671-1.102-5.631-1.655-8.88-1.655-4.76 0-8.736 1.119-11.927 3.352" fill="#686d74"/></g></g><text transform="matrix(1 0 0 -1 278.73 300.97)" fill="#686d74" font-family="'Google Sans Display'" font-size="94.794px"><tspan x="0" y="0">Info Session</tspan></text></g></svg>
